<svg width="22" height="22" viewBox="0 0 22 22" fill="none" xmlns="http://www.w3.org/2000/svg">
<path d="M12.2748 2.0748C12.2748 1.37064 11.704 0.799805 10.9998 0.799805C10.2956 0.799805 9.7248 1.37064 9.7248 2.0748V9.7248H2.0748C1.37064 9.7248 0.799805 10.2956 0.799805 10.9998C0.799805 11.704 1.37064 12.2748 2.0748 12.2748L9.7248 12.2748V19.9248C9.7248 20.629 10.2956 21.1998 10.9998 21.1998C11.704 21.1998 12.2748 20.629 12.2748 19.9248V12.2748L19.9248 12.2748C20.629 12.2748 21.1998 11.704 21.1998 10.9998C21.1998 10.2956 20.629 9.7248 19.9248 9.7248H12.2748V2.0748Z" fill="white"/>
</svg>