<svg width="24" height="25" viewBox="0 0 24 25" fill="none" xmlns="http://www.w3.org/2000/svg">
<path fill-rule="evenodd" clip-rule="evenodd" d="M11.7897 23.101C11.82 23.1185 11.8437 23.1321 11.8605 23.1415L11.8884 23.1571C12.1113 23.2794 12.3878 23.2785 12.6108 23.1575L12.6395 23.1415C12.6563 23.1321 12.68 23.1185 12.7103 23.101C12.7707 23.066 12.857 23.015 12.9655 22.9482C13.1825 22.8146 13.4888 22.6176 13.8546 22.3591C14.5851 21.8431 15.5597 21.0774 16.5365 20.0773C18.4807 18.0868 20.5 15.0962 20.5 11.25C20.5 6.69365 16.8063 3 12.25 3C7.69365 3 4 6.69365 4 11.25C4 15.0962 6.01932 18.0868 7.96346 20.0773C8.94025 21.0774 9.91491 21.8431 10.6454 22.3591C11.0112 22.6176 11.3175 22.8146 11.5345 22.9482C11.643 23.015 11.7293 23.066 11.7897 23.101ZM12.25 14.25C13.9069 14.25 15.25 12.9069 15.25 11.25C15.25 9.59315 13.9069 8.25 12.25 8.25C10.5931 8.25 9.25 9.59315 9.25 11.25C9.25 12.9069 10.5931 14.25 12.25 14.25Z" fill="#9EFF00"/>
</svg>