<svg width="81" height="40" viewBox="0 0 81 40" fill="none" xmlns="http://www.w3.org/2000/svg">
<g clip-path="url(#clip0_92_36093)">
<path d="M0.334473 29.4959L8.5465 16.7177H1.3073C1.24595 16.3496 1.21965 15.9464 1.21965 15.4995C1.21965 15.07 1.24595 14.6756 1.3073 14.3163H13.025L13.174 14.7107L4.90061 27.5152H12.6569C12.7182 27.9183 12.7445 28.339 12.7445 28.7597C12.7445 29.1628 12.7182 29.5484 12.6569 29.9165H0.483464L0.334473 29.4959Z" fill="#E6E6E6"/>
<path d="M24.0329 19.6363C24.0329 18.4356 23.7261 17.6118 23.1214 17.1385C22.5167 16.674 21.6315 16.4374 20.4746 16.4374C19.7647 16.4374 19.0986 16.49 18.4851 16.6039C17.8629 16.7179 17.2669 16.8581 16.6709 17.0421C16.2853 16.3761 16.0925 15.5698 16.0925 14.6407C16.7849 14.4216 17.5386 14.2464 18.3712 14.1237C19.2038 14.001 20.0013 13.9396 20.7726 13.9396C22.7971 13.9396 24.3396 14.4041 25.4001 15.3244C26.4518 16.2446 26.9864 17.7257 26.9864 19.7503V29.5136C26.2765 29.6713 25.4176 29.8466 24.4009 30.0131C23.3843 30.1884 22.3501 30.2673 21.2984 30.2673C20.3081 30.2673 19.4054 30.1796 18.6078 29.9956C17.8103 29.8115 17.1267 29.5223 16.5658 29.1104C16.0049 28.7073 15.5754 28.1902 15.2687 27.5591C14.9619 26.9281 14.8129 26.1656 14.8129 25.2805C14.8129 24.4128 14.9882 23.6416 15.3476 22.9842C15.6981 22.3269 16.1802 21.7748 16.7936 21.3453C17.3984 20.9071 18.0995 20.5829 18.897 20.3725C19.6858 20.1622 20.5184 20.0482 21.3948 20.0482C22.0434 20.0482 22.578 20.0658 22.9899 20.0921C23.4018 20.1184 23.7524 20.1622 24.0416 20.1972V19.6363H24.0329ZM24.0329 22.5899C23.7261 22.546 23.3405 22.511 22.876 22.4672C22.4115 22.4233 22.0171 22.4058 21.6928 22.4058C20.4308 22.4058 19.4755 22.6424 18.8182 23.1069C18.1609 23.5714 17.8278 24.2813 17.8278 25.2366C17.8278 25.8414 17.9418 26.3234 18.1609 26.6652C18.38 27.007 18.6604 27.2699 18.9935 27.454C19.3265 27.638 19.6946 27.752 20.1065 27.787C20.5097 27.8308 20.8953 27.8484 21.2634 27.8484C21.7279 27.8484 22.2099 27.8221 22.7095 27.7695C23.209 27.7169 23.6472 27.6468 24.0329 27.5416V22.5899Z" fill="#E6E6E6"/>
<path d="M30.2729 14.317C30.4745 14.2731 30.6848 14.2469 30.8951 14.2293C31.1055 14.2118 31.3246 14.203 31.5524 14.203C31.754 14.203 31.9644 14.2118 32.1922 14.2293C32.4113 14.2469 32.6304 14.2819 32.832 14.317C32.8495 14.3608 32.8758 14.4835 32.9109 14.6938C32.9372 14.9042 32.9722 15.132 32.9985 15.3774C33.0248 15.6228 33.0599 15.8507 33.0862 16.0786C33.1125 16.3064 33.13 16.4467 33.13 16.508C33.3316 16.1837 33.577 15.8682 33.8574 15.5615C34.1379 15.2547 34.4797 14.983 34.8741 14.7376C35.2685 14.4923 35.7154 14.2994 36.215 14.1592C36.7145 14.019 37.2667 13.9489 37.8714 13.9489C38.7829 13.9489 39.633 14.0979 40.413 14.4046C41.193 14.7114 41.8591 15.1759 42.42 15.8156C42.9809 16.4554 43.4104 17.2705 43.7259 18.2521C44.0414 19.2337 44.1991 20.3993 44.1991 21.7402C44.1991 24.4221 43.4717 26.5167 42.0256 28.0241C40.5708 29.5316 38.52 30.2941 35.8644 30.2941C35.4174 30.2941 34.9617 30.2678 34.4972 30.2064C34.0327 30.1451 33.6208 30.0662 33.279 29.961V37.1126C33.0336 37.1564 32.7794 37.1827 32.499 37.2002C32.2273 37.2178 31.9731 37.2265 31.754 37.2265C31.5349 37.2265 31.2808 37.2178 31.0091 37.2002C30.7374 37.1827 30.4832 37.1476 30.2641 37.1126V14.317H30.2729ZM33.2878 27.3668C33.6734 27.5071 34.0678 27.6122 34.4709 27.6736C34.8741 27.7349 35.3999 27.7612 36.0572 27.7612C36.7847 27.7612 37.4595 27.6473 38.0642 27.4106C38.669 27.174 39.1948 26.8147 39.633 26.3327C40.0712 25.8419 40.413 25.2284 40.6672 24.4922C40.9213 23.756 41.044 22.8708 41.044 21.8629C41.044 20.2416 40.7461 18.9532 40.1501 17.9979C39.5541 17.0426 38.5725 16.5694 37.2141 16.5694C36.7058 16.5694 36.2237 16.657 35.7505 16.8411C35.286 17.0251 34.8653 17.2968 34.506 17.6649C34.1379 18.033 33.8487 18.4887 33.6208 19.0496C33.3929 19.6105 33.2878 20.2678 33.2878 21.0391V27.3668Z" fill="#E6E6E6"/>
<path d="M47.9502 16.6826H45.9695C45.9257 16.5161 45.8994 16.3321 45.8819 16.1217C45.8643 15.9114 45.8556 15.701 45.8556 15.4995C45.8556 15.2979 45.8643 15.0876 45.8819 14.8772C45.8994 14.6669 45.9344 14.4741 45.9695 14.3163H50.9037V29.9253C50.6846 29.9691 50.4305 29.9954 50.1588 30.0129C49.8871 30.0305 49.6329 30.0392 49.4138 30.0392C49.2122 30.0392 48.9756 30.0305 48.6951 30.0129C48.4235 29.9954 48.1693 29.9604 47.9502 29.9253V16.6826Z" fill="#E6E6E6"/>
<path d="M57.3804 22.8618C57.4243 24.562 57.8625 25.8153 58.7038 26.6041C59.5452 27.3928 60.7897 27.7872 62.4286 27.7872C63.8659 27.7872 65.2419 27.5331 66.539 27.0248C66.7055 27.3315 66.837 27.6996 66.9334 28.1378C67.0386 28.576 67.0911 29.0055 67.1174 29.4349C66.4513 29.7154 65.7152 29.9345 64.9089 30.0747C64.1113 30.2149 63.2174 30.285 62.2445 30.285C60.8248 30.285 59.6065 30.0835 58.5899 29.6891C57.5732 29.2947 56.7406 28.7338 56.0833 28.0151C55.426 27.2964 54.944 26.4463 54.6372 25.456C54.3305 24.4744 54.1815 23.3964 54.1815 22.2132C54.1815 21.0563 54.3305 19.9784 54.6197 18.9705C54.9089 17.9626 55.3647 17.0949 55.9694 16.35C56.5741 15.6138 57.3454 15.0178 58.2656 14.5884C59.1859 14.1502 60.2814 13.9311 61.5346 13.9311C62.6126 13.9311 63.5504 14.1151 64.3655 14.4832C65.1805 14.8513 65.8554 15.3509 66.4075 15.9907C66.9509 16.6304 67.3716 17.3929 67.652 18.2693C67.9325 19.1545 68.0815 20.1098 68.0815 21.144C68.0815 21.4244 68.0727 21.7312 68.0464 22.0379C68.0289 22.3534 68.0026 22.6251 67.9851 22.8442H57.3804V22.8618ZM65.1104 20.6094C65.1104 20.0397 65.0315 19.4963 64.8826 18.9792C64.7336 18.4622 64.5057 18.0152 64.2165 17.6296C63.9185 17.2439 63.5504 16.9372 63.0947 16.7006C62.6389 16.4639 62.0956 16.35 61.4645 16.35C60.2288 16.35 59.2823 16.7268 58.6162 17.4718C57.9589 18.2255 57.5557 19.2685 57.4155 20.6094H65.1104Z" fill="#E6E6E6"/>
<path d="M71.4119 14.3163C71.631 14.2725 71.8501 14.2462 72.0517 14.2287C72.2533 14.2111 72.4636 14.2024 72.6915 14.2024C72.9106 14.2024 73.1385 14.2111 73.3576 14.2287C73.5767 14.2462 73.787 14.2813 73.9623 14.3163C74.0236 14.6231 74.085 15.0174 74.1463 15.517C74.2077 16.0166 74.234 16.4372 74.234 16.779C74.6634 16.0867 75.2243 15.4907 75.9255 14.9824C76.6266 14.4741 77.5206 14.2199 78.6161 14.2199C78.7826 14.2199 78.9491 14.2287 79.1156 14.2374C79.2909 14.2462 79.4312 14.2637 79.5538 14.2813C79.5977 14.4653 79.624 14.6581 79.6415 14.8597C79.659 15.0613 79.6678 15.2716 79.6678 15.4995C79.6678 15.7449 79.6502 15.999 79.624 16.262C79.5977 16.5249 79.5538 16.779 79.5188 17.0244C79.3523 16.9806 79.1857 16.9631 79.0192 16.9631C78.8439 16.9631 78.7125 16.9631 78.6073 16.9631C78.0639 16.9631 77.5381 17.042 77.0385 17.191C76.539 17.3399 76.092 17.6116 75.6976 17.9973C75.3032 18.3829 74.9877 18.9087 74.7511 19.5836C74.5144 20.2497 74.4005 21.1173 74.4005 22.169V29.9253C74.1814 29.9691 73.9272 29.9954 73.6556 30.0129C73.3839 30.0305 73.1297 30.0392 72.9106 30.0392C72.6915 30.0392 72.4373 30.0305 72.1656 30.0129C71.894 29.9954 71.631 29.9604 71.3856 29.9253V14.3163H71.4119Z" fill="#E6E6E6"/>
<path d="M53.7695 5.13179H50.8247L52.9106 3.04592C52.7441 2.81805 52.56 2.59895 52.3672 2.39737C52.1656 2.19579 51.9553 2.01175 51.7187 1.85399L49.6328 3.93986V0.995101C49.3611 0.95128 49.0807 0.924988 48.7914 0.924988H48.7827C48.4935 0.924988 48.213 0.95128 47.9413 0.995101V3.93986L45.8554 1.85399C45.6276 2.02051 45.4085 2.20456 45.2069 2.39737C45.0053 2.59895 44.83 2.80929 44.6635 3.04592L46.7581 5.13179H43.8134C43.8134 5.13179 43.7433 5.68394 43.7433 5.97315C43.7433 6.26237 43.7696 6.54282 43.8134 6.81451H46.7581L44.6723 8.90039C44.9965 9.35612 45.3997 9.75928 45.8642 10.0923L47.9501 8.00644V10.9512C48.2218 10.995 48.5022 11.0213 48.7914 11.0213H48.8002C49.0894 11.0213 49.3699 10.995 49.6416 10.9512V8.00644L51.7274 10.0923C51.9553 9.9258 52.1744 9.74175 52.376 9.54894C52.5776 9.34736 52.7616 9.13702 52.9194 8.90039L50.8335 6.81451H53.7782C53.8221 6.54282 53.8484 6.26237 53.8484 5.97315V5.96439C53.8396 5.68394 53.8221 5.40348 53.7695 5.13179ZM50.0535 5.98192C50.0535 6.35878 49.9834 6.71811 49.8607 7.05115C49.5276 7.17385 49.1683 7.24396 48.7914 7.24396C48.4146 7.24396 48.0552 7.17385 47.7222 7.05115C47.5995 6.71811 47.5294 6.35878 47.5294 5.98192V5.97315C47.5294 5.59629 47.5995 5.23696 47.7222 4.90392C48.0552 4.78123 48.4146 4.71111 48.7914 4.71111C49.1683 4.71111 49.5276 4.78123 49.8607 4.90392C49.9834 5.23696 50.0535 5.59629 50.0535 5.98192Z" fill="#E6E6E6"/>
</g>
<defs>
<clipPath id="clip0_92_36093">
<rect width="80" height="40" fill="white" transform="translate(0.333496)"/>
</clipPath>
</defs>
</svg>